<svg width="37" height="36" viewBox="0 0 37 36" fill="none" xmlns="http://www.w3.org/2000/svg">
<path d="M18.5 36C28.4411 36 36.5 27.9411 36.5 18C36.5 8.05888 28.4411 0 18.5 0C8.55888 0 0.5 8.05888 0.5 18C0.5 22.152 1.90577 25.9756 4.26732 29.021L8.23554 14.0299C9.88672 7.52344 14.1758 4.15725 21.0616 4.15725H23.436C28.2785 4.15725 31.835 8.70307 30.6698 13.4033C30.4609 14.2463 30.0702 15.0334 29.5253 15.7097L27.5045 18.2174C26.986 18.8609 26.7968 19.7092 26.993 20.5121L27.609 23.0338C27.9278 24.339 27.8695 25.708 27.441 26.9814C25.9832 31.3132 21.9227 34.231 17.3521 34.231H10.7086C13.0662 35.3648 15.7089 36 18.5 36Z" fill="#141624"/>
<path fill-rule="evenodd" clip-rule="evenodd" d="M18.2 21.7592H14.6932C13.5747 21.7592 12.5968 22.5135 12.3129 23.5953L10.9373 28.8354H16.371C18.3811 28.8354 20.1384 27.4799 20.6487 25.5357L20.7666 25.0865C21.2082 23.4043 19.9392 21.7592 18.2 21.7592ZM17.1646 23.3514H15.259C14.6206 23.3514 14.0623 23.7814 13.8993 24.3988L13.1486 27.2432H16.1532C17.2647 27.2432 18.2364 26.4977 18.5186 25.4284L18.5838 25.1814C18.828 24.2562 18.1263 23.3514 17.1646 23.3514Z" fill="#141624"/>
<path fill-rule="evenodd" clip-rule="evenodd" d="M15.4971 11.7427C15.7811 10.6609 16.7589 9.90663 17.8774 9.90663H21.3843C23.1235 9.90663 24.3925 11.5517 23.9509 13.2339L23.833 13.6831C23.3227 15.6273 21.5654 16.9828 19.5553 16.9828H14.1216L15.4971 11.7427ZM17.0836 12.5462C17.2465 11.9289 17.8049 11.4988 18.4433 11.4988H20.3489C21.3106 11.4988 22.0123 12.4036 21.7681 13.3288L21.7029 13.5758C21.4207 14.6451 20.449 15.3907 19.3375 15.3907H16.3329L17.0836 12.5462Z" fill="#141624"/>
</svg>
